<svg xmlns="http://www.w3.org/2000/svg" viewBox="0 0 175 141"><path fill="none" stroke="#c57133" stroke-width="2" d="M98.22 50.88q2.37.1 4.74.35c.56.06 1.08-.35.57-.9a1 .99 72.7 0 0-.59-.31q-14.89-2.05.1-2.5a.99.98 14.8 0 0 .83-.48q.46-.76-.88-.81-1.26-.05-2.36-.12-6.76-.43-.17-1.97 1.4-.33 2.8-.6.88-.17.48-.7a.65.62-19.1 0 0-.55-.25l-7.75.49a.27.26-9.7 0 1-.27-.18c-.15-.51 6.22-2.92 7.01-3.28.67-.3.95-1.15-.41-.78q-2.26.6-4.57 1.05-3.68.72-.61-1.44 1.81-1.27 3.65-2.48c1.22-.8-.04-.78-.42-.62q-2.09.89-4.23 1.7-3.61 1.36-.84-1.32 1.48-1.44 3.06-2.78c1.05-.89.04-1.2-.76-.68q-1.74 1.12-3.53 2.19-3.28 1.95-1.06-1.15 1.01-1.43 2.47-3.38.52-.69-.19-.71a.6.59-64.5 0 0-.42.15l-2.91 2.44q-3.65 3.06-1.54-1.21.67-1.36 1.45-2.66c.6-1.02-.25-1.25-.87-.52q-2.41 2.84-4.77 5.83a1.02 1.01 27.8 0 1-1.1.33q-4.66-1.53-7.82-.7c-6.07 1.6-4.07 5.86.07 7.6 7.87 3.3 14.19 4.99 16.75 12.16a1 1 0 0 0 .75.65c.71.13 8.69 2.26 8.37 1.35a.41.4 2 0 0-.23-.24l-4.6-1.98q-4.01-1.72.35-1.54M59.48 32.14q-1.46-.5-.59.77.45.67 1.68 1.39 1.53.89.71-.68-.54-1.05-1.8-1.48m-.47 3.95q-.72-.39-1.52-.53-2.4-.41-.37.93l2.85 1.89a.65.64-69.1 0 0 .99-.45c.16-1.19-1.29-1.48-1.95-1.84m-.94 10.05q-2.03.23-4.06.32c-2.7.12-.91 1.01-.13 1.05q1.86.1 3.72.22 5.21.36.13 1.58l-4.17 1a.4.4 0 0 0-.31.39l-.01.3a.21.21 0 0 0 .23.21l4.86-.28q4.56-.27.36 1.53l-4.14 1.78a.4.39-17.9 0 0-.24.46q.11.51.95.25.99-.3 4.14-.93 3.92-.78.6 1.45l-3.77 2.54a.41.41 0 0 0-.18.39q.06.48.63.26 2.66-1.06 4.47-1.77 3.89-1.53.84 1.33-1.45 1.35-2.98 2.61c-1.4 1.16.41 1.02.99.62q1.66-1.13 3.4-2.18 3.29-1.98 1.06 1.15-1.23 1.73-2.52 3.41c-.55.71 0 1.3.72.63q1.66-1.53 3.41-3 2.71-2.27 1.24.95-.85 1.86-1.88 3.66c-.79 1.36.62.83 1 .35q2.24-2.86 4.6-5.71a1.01.99 28.6 0 1 1.08-.31c6.91 2.26 16.46-3.88 5.76-8.13-5.79-2.3-11.62-3.64-15.65-9.24a1.03.96 29.7 0 1-.19-.61q.05-2.11-2-2.53c-.62-.12-6.07-1.64-5.9-.66a.34.31 7.3 0 0 .2.24l6.67 2.9a.34.33-69.5 0 1 .18.41c-.15.47-5.35-.05-7.44-.24-.4-.04-.92.21-.68.65a.39.37-6.3 0 0 .26.2l4.85 1.18q4.42 1.08-.1 1.57m41.74 11.3-4.89-3.08q-1.46-.91-1.22.79.03.22.13.43c.49 1.09 4.81 2.46 6.04 2.93q1.54.59.46-.65-.19-.21-.52-.42m-3.47 2.28L94.63 58a.83.8 64.5 0 0-.61-.23c-.99.05-.57 1.35-.03 1.79q.78.64 1.55 1.14 5.16 3.37.8-.98m-3.63 2.84q.11 1.23 1.27 1.83 1.26.64.71-.66-.38-.87-1.11-1.58-.98-.95-.87.41" vector-effect="non-scaling-stroke"/><path fill="#8c1d40" d="M52.75 61.5H40.67a1 1 0 0 0-.97.77l-1.71 7.21a1.01 1 6.5 0 1-.98.77H24.7a1 .99 7.2 0 1-.97-1.24q4.44-17.64 8.85-35.33.87-3.51.65-4.96-.34-2.24-2.13-3.81-1.59-1.4.53-1.4L59 23.5a1 1 0 0 1 .97.77l1.11 4.74q.51 2.21 1.79.33.43-.62.92-1.21c2.5-2.96 8.48-4.43 12.03-4.56q6.6-.23 29.19-.03a1 1 0 0 1 .99 1v33.38a1.01 1 10.6 0 0 .65.94c5.24 1.96 7.88 0 7.86-5.25q-.04-14.57.01-29.11a1.01 1-89.7 0 1 1-1h13.42a1 .99 0 0 1 1 .99q.1 19.34.06 38.59 0 2.13.83 3.5.77 1.26 1.83 2.28 1.44 1.37-.55 1.38-6.15.02-12.3.01-2.04 0-2.99-.69-.83-.6-1.31-1.54a1 .99-33.1 0 0-1.53-.32q-2.33 1.93-5.29 2.46-1.35.25-6.93.05-5.79-.2-9.48-4.47a1.01 1.01 0 0 0-1.46-.06q-3.41 3.36-8.33 4.06-7.48 1.06-26.04.44a1 1 0 0 1-.94-.75l-1.79-7.17a1 1 0 0 0-.97-.76Zm45.47-10.62q2.37.1 4.74.35c.56.06 1.08-.35.57-.9a1 .99 72.7 0 0-.59-.31q-14.89-2.05.1-2.5a.99.98 14.8 0 0 .83-.48q.46-.76-.88-.81-1.26-.05-2.36-.12-6.76-.43-.17-1.97 1.4-.33 2.8-.6.88-.17.48-.7a.65.62-19.1 0 0-.55-.25l-7.75.49a.27.26-9.7 0 1-.27-.18c-.15-.51 6.22-2.92 7.01-3.28.67-.3.95-1.15-.41-.78q-2.26.6-4.57 1.05-3.68.72-.61-1.44 1.81-1.27 3.65-2.48c1.22-.8-.04-.78-.42-.62q-2.09.89-4.23 1.7-3.61 1.36-.84-1.32 1.48-1.44 3.06-2.78c1.05-.89.04-1.2-.76-.68q-1.74 1.12-3.53 2.19-3.28 1.95-1.06-1.15 1.01-1.43 2.47-3.38.52-.69-.19-.71a.6.59-64.5 0 0-.42.15l-2.91 2.44q-3.65 3.06-1.54-1.21.67-1.36 1.45-2.66c.6-1.02-.25-1.25-.87-.52q-2.41 2.84-4.77 5.83a1.02 1.01 27.8 0 1-1.1.33q-4.66-1.53-7.82-.7c-6.07 1.6-4.07 5.86.07 7.6 7.87 3.3 14.19 4.99 16.75 12.16a1 1 0 0 0 .75.65c.71.13 8.69 2.26 8.37 1.35a.41.4 2 0 0-.23-.24l-4.6-1.98q-4.01-1.72.35-1.54ZM59.48 32.14q-1.46-.5-.59.77.45.67 1.68 1.39 1.53.89.71-.68-.54-1.05-1.8-1.48ZM42.17 52.57a.35.35 0 0 0 .34.43h8.46a.35.35 0 0 0 .34-.43l-4.23-17.19a.35.35 0 0 0-.68 0l-4.23 17.19Zm16.84-16.48q-.72-.39-1.52-.53-2.4-.41-.37.93l2.85 1.89a.65.64-69.1 0 0 .99-.45c.16-1.19-1.29-1.48-1.95-1.84Zm-.94 10.05q-2.03.23-4.06.32c-2.7.12-.91 1.01-.13 1.05q1.86.1 3.72.22 5.21.36.13 1.58l-4.17 1a.4.4 0 0 0-.31.39l-.01.3a.21.21 0 0 0 .23.21l4.86-.28q4.56-.27.36 1.53l-4.14 1.78a.4.39-17.9 0 0-.24.46q.11.51.95.25.99-.3 4.14-.93 3.92-.78.6 1.45l-3.77 2.54a.41.41 0 0 0-.18.39q.06.48.63.26 2.66-1.06 4.47-1.77 3.89-1.53.84 1.33-1.45 1.35-2.98 2.61c-1.4 1.16.41 1.02.99.62q1.66-1.13 3.4-2.18 3.29-1.98 1.06 1.15-1.23 1.73-2.52 3.41c-.55.71 0 1.3.72.63q1.66-1.53 3.41-3 2.71-2.27 1.24.95-.85 1.86-1.88 3.66c-.79 1.36.62.83 1 .35q2.24-2.86 4.6-5.71a1.01.99 28.6 0 1 1.08-.31c6.91 2.26 16.46-3.88 5.76-8.13-5.79-2.3-11.62-3.64-15.65-9.24a1.03.96 29.7 0 1-.19-.61q.05-2.11-2-2.53c-.62-.12-6.07-1.64-5.9-.66a.34.31 7.3 0 0 .2.24l6.67 2.9a.34.33-69.5 0 1 .18.41c-.15.47-5.35-.05-7.44-.24-.4-.04-.92.21-.68.65a.39.37-6.3 0 0 .26.2l4.85 1.18q4.42 1.08-.1 1.57Zm41.74 11.3-4.89-3.08q-1.46-.91-1.22.79.03.22.13.43c.49 1.09 4.81 2.46 6.04 2.93q1.54.59.46-.65-.19-.21-.52-.42Zm-3.47 2.28L94.63 58a.83.8 64.5 0 0-.61-.23c-.99.05-.57 1.35-.03 1.79q.78.64 1.55 1.14 5.16 3.37.8-.98Zm-3.63 2.84q.11 1.23 1.27 1.83 1.26.64.71-.66-.38-.87-1.11-1.58-.98-.95-.87.41Z"/><ellipse fill="#4a1021" fill-opacity=".569" rx="1.82" ry="1.43" transform="rotate(68.2 48.369 111.702)"/><path fill="#fec526" d="m97.87 52.42 4.6 1.98a.41.4 2 0 1 .23.24c.32.91-7.66-1.22-8.37-1.35a1 1 0 0 1-.75-.65c-2.56-7.17-8.88-8.86-16.75-12.16-4.14-1.74-6.14-6-.07-7.6q3.16-.83 7.82.7a1.02 1.01 27.8 0 0 1.1-.33q2.36-2.99 4.77-5.83c.62-.73 1.47-.5.87.52q-.78 1.3-1.45 2.66-2.11 4.27 1.54 1.21l2.91-2.44a.6.59-64.5 0 1 .42-.15q.71.02.19.71-1.46 1.95-2.47 3.38-2.22 3.1 1.06 1.15 1.79-1.07 3.53-2.19c.8-.52 1.81-.21.76.68q-1.58 1.34-3.06 2.78-2.77 2.68.84 1.32 2.14-.81 4.23-1.7c.38-.16 1.64-.18.42.62q-1.84 1.21-3.65 2.48-3.07 2.16.61 1.44 2.31-.45 4.57-1.05c1.36-.37 1.08.48.41.78-.79.36-7.16 2.77-7.01 3.28a.27.26-9.7 0 0 .27.18l7.75-.49a.65.62-19.1 0 1 .55.25q.4.53-.48.7-1.4.27-2.8.6-6.59 1.54.17 1.97 1.1.07 2.36.12 1.34.05.88.81a.99.98 14.8 0 1-.83.48q-14.99.45-.1 2.5a1 .99 72.7 0 1 .59.31c.51.55-.01.96-.57.9q-2.37-.25-4.74-.35-4.36-.18-.35 1.54ZM59.48 32.14q1.26.43 1.8 1.48.82 1.57-.71.68-1.23-.72-1.68-1.39-.87-1.27.59-.77Zm-.47 3.95c.66.36 2.11.65 1.95 1.84a.65.64-69.1 0 1-.99.45l-2.85-1.89q-2.03-1.34.37-.93.8.14 1.52.53Zm-.84 8.48-4.85-1.18a.39.37-6.3 0 1-.26-.2c-.24-.44.28-.69.68-.65 2.09.19 7.29.71 7.44.24a.34.33-69.5 0 0-.18-.41l-6.67-2.9a.34.31 7.3 0 1-.2-.24c-.17-.98 5.28.54 5.9.66q2.05.42 2 2.53a1.03.96 29.7 0 0 .19.61c4.03 5.6 9.86 6.94 15.65 9.24 10.7 4.25 1.15 10.39-5.76 8.13a1.01.99 28.6 0 0-1.08.31q-2.36 2.85-4.6 5.71c-.38.48-1.79 1.01-1-.35q1.03-1.8 1.88-3.66 1.47-3.22-1.24-.95-1.75 1.47-3.41 3c-.72.67-1.27.08-.72-.63q1.29-1.68 2.52-3.41 2.23-3.13-1.06-1.15-1.74 1.05-3.4 2.18c-.58.4-2.39.54-.99-.62q1.53-1.26 2.98-2.61 3.05-2.86-.84-1.33-1.81.71-4.47 1.77-.57.22-.63-.26a.41.41 0 0 1 .18-.39L60 55.47q3.32-2.23-.6-1.45-3.15.63-4.14.93-.84.26-.95-.25a.4.39-17.9 0 1 .24-.46l4.14-1.78q4.2-1.8-.36-1.53l-4.86.28a.21.21 0 0 1-.23-.21l.01-.3a.4.4 0 0 1 .31-.39l4.17-1q5.08-1.22-.13-1.58-1.86-.12-3.72-.22c-.78-.04-2.57-.93.13-1.05q2.03-.09 4.06-.32 4.52-.49.1-1.57Zm41.64 12.87q.33.21.52.42 1.08 1.24-.46.65c-1.23-.47-5.55-1.84-6.04-2.93q-.1-.21-.13-.43-.24-1.7 1.22-.79l4.89 3.08Zm-3.47 2.28q4.36 4.35-.8.98-.77-.5-1.55-1.14c-.54-.44-.96-1.74.03-1.79a.83.8 64.5 0 1 .61.23l1.71 1.72Zm-3.63 2.84q-.11-1.36.87-.41.73.71 1.11 1.58.55 1.3-.71.66-1.16-.6-1.27-1.83Z"/><path fill="#8c1d40" d="M106.19 86.4c4.52 1.45 11.05.84 7.45 8.44a1.03.98-2.5 0 1-.44.46q-6.48 3.34-11.58-.7a.99.99 0 0 1 .01-1.57q.75-.59 1.65-.9a.99.98-35.7 0 1 .95.15q2.55 2 5.69.92a.99.94 4.4 0 0 .54-.44c.84-1.43-.4-2.15-1.67-2.15q-3.72 0-6.52-2.38a.98.97 13.9 0 1-.34-.56q-1.17-5.79 4.59-6.59 4.06-.57 7 1.9a1.01 1 49.7 0 1-.13 1.63l-1.33.78a1 1 0 0 1-1.19-.13c-1.15-1.07-5.16-2.39-5.37.1a1 .99-78.8 0 0 .69 1.04Zm-78.08 8.32q-.75 2.59-3.6 1.74a1 1 0 0 1-.65-1.31L28.8 81.9a1 .99 10 0 1 .94-.65h2.61a1 .99-10 0 1 .94.65l4.85 13.2a1 1 0 0 1-.63 1.3q-2.67.83-3.63-1.75a1 .99-10 0 0-.94-.65h-3.87a1 1 0 0 0-.96.72Zm3.24-8.69a.34.34 0 0 0-.65 0l-1.42 4.78a.34.34 0 0 0 .33.44h2.81a.34.34 0 0 0 .32-.43l-1.39-4.79Z"/><rect width="3.5" height="2.74" x="-1.75" y="-1.37" fill="#8c1d40" rx=".68" transform="rotate(-2.1 2277.905 -1281.807)"/><path fill="#8c1d40" d="M120.31 93.66q1.71.33 1.07 2.28a1.01 1.01 0 0 1-1.13.67l-3.13-.58a1 1 0 0 1-.82-.92l-.41-6.69a1 1 0 0 0-.5-.81q-2.05-1.16.09-2.31a1.02 1.02 0 0 0 .52-1.01q-.4-3.27 2.85-2.22a1 1 0 0 1 .65 1.23q-.6 2.1 1.3 2.22a.99.99 0 0 1 .91 1.17q-.15.9-1.17.86a1 1 0 0 0-1.04 1v4.13a1 .99-84.8 0 0 .81.98Zm17.35-5.09.13 4.56a.64.64 0 0 0 .64.62h.27a1.01 1 87.2 0 1 1 .91q.31 3.37-4.83.99a1.01 1 12.5 0 1-.59-.91l.01-6.13a1 1 0 0 0-.54-.89q-2.14-1.11.12-2.65a1.02.99 72.2 0 0 .43-.87l-.04-1.08a1 .99 80.1 0 1 .69-.99q3.42-1.09 2.78 2.14a1.01 1 9 0 0 .87 1.19l.45.05a.99.99 0 0 1 .88.91q.09 1.23-1.19 1.12a1.01 1 1 0 0-1.08 1.03Zm-63.31 2.21a6.06 6.06 0 0 1-6.06 6.06 6.06 6.06 0 0 1-6.06-6.06 6.06 6.06 0 0 1 6.06-6.06 6.06 6.06 0 0 1 6.06 6.06Zm-5.983 3.25a3.27 2.58 89 0 0 2.523-3.315 3.27 2.58 89 0 0-2.637-3.225 3.27 2.58 89 0 0-2.523 3.315 3.27 2.58 89 0 0 2.637 3.224ZM81.35 87.9c-3.73-1.62-2.58 5.8-2.66 7.58a1 .99 4.5 0 1-1.12.95l-1.33-.17a.99.99 0 0 1-.88-.98l-.04-8.9a1 1 0 0 1 1.01-1.01q3.84.05 5.11-.61a1.01.98 44.7 0 1 .93.01L84.7 86a1 .99-76.1 0 1 .53.88l.07 8.52a1.01 1 89.1 0 1-.97 1.01l-1.28.04a1 1 0 0 1-1.03-.99l-.06-6.65a1.01 1.01 0 0 0-.61-.91Z"/><path fill="#8c1d40" d="M92.56 87.33q-1.13-.74-2.05.56a.97.97 0 0 1-.6.4q-4.21.92-2.37-1.78c1.71-2.51 6.14-1.71 8.43-.47a1.01.99-76.1 0 1 .52.88l.01 8.54a1 .99-84.3 0 1-1.19.98l-2.11-.42a1.01.98-51.2 0 0-.64.08c-5.26 2.6-8.73-4.11-3.75-5.91q1.69-.62 3.44-1.05 2.24-.54.31-1.81Zm-.73 6.53q1.1-.45 1.19-1.3a1 1 0 0 0-1.39-1.03l-1.21.53a1.01 1-18.7 0 0-.58 1.16q.33 1.33 1.99.64Zm36.84-6.33a1 .99 56 0 0-1.63-.32q-1.41 1.43-3.41 1.25a1.01 1 3.4 0 1-.91-1.02c.09-3.56 6.78-2.45 8.96-1.41a1.02 1.01 13.2 0 1 .57.91v8.55a1.01 1-86.5 0 1-1.12 1l-2.64-.33q-.27-.04-.52.07-4.25 1.78-5.96-2.48-1.02-2.52 2.16-3.6c1.22-.41 5.3-.71 4.5-2.62Zm-2.12 6.45q1.58.1 2.04-1.15.76-2.08-1.31-1.28-.6.24-1.16.56-2.82 1.64.43 1.87Zm17.37-1.18q.4 1.35 2.17 1.37 1.41.01 2.5-1.27a1 1 0 0 1 .98-.33c4.51 1.01-2.55 6.12-6.88 3.32-5.42-3.51-1.66-13.28 5.56-10.67q3.46 1.25 3.21 5.27a.99.99 0 0 1-.98.93l-5.62.09a1 1 0 0 0-.94 1.29Zm1.4-5.33q-.16.01-.3.07-.46.18-.73.44-1.48 1.38.54 1.38h2.22a.8.8 0 0 0 .72-1.15q-.43-.88-2.45-.74ZM43.98 85.46q2.82-1.26 1.64 2.08a.99.99 0 0 1-.66.62l-1.5.44a1 1 0 0 0-.72.96l.02 5.86a1.01 1 0 0 1-1.01 1h-1.34a1 1 0 0 1-1-.98l-.21-9.11a1.01 1 1.6 0 1 1.08-1.02l3.22.24q.25.02.48-.09Z"/><rect width="3.44" height="11.1" x="-1.72" y="-5.55" fill="#8c1d40" rx=".44" transform="rotate(.7 -7409.36 4017.595)"/><path fill="#8c1d40" d="M54.98 87.75h-1.89a1 .99.3 0 1-1-1v-.5a1 1 0 0 1 1-1h7.69a1.01 1 80.7 0 1 .95.69q.49 1.5-.29 2.26-2.13 2.07-4.2 4.19-1.33 1.36.57 1.36h2.92a1 1 0 0 1 1 .97l.02.62a1 1 0 0 1-.98 1.04l-8.24.15a1.01 1-8.3 0 1-.98-.73q-.52-1.83.54-2.71 2.02-1.68 3.67-3.71 1.32-1.64-.78-1.63Zm-27.06 26.5c6.46 3.63 4.56-8.09 4.6-10.76a1 1 0 0 1 1-.99h1.85a1 1 0 0 1 1 .92c.26 3.37.99 10.32-1.75 12.84-2.68 2.46-8.52 2.52-10.49-1.23-1.27-2.4-.65-8.7-.61-11.54a1 .99-89.7 0 1 .99-.99h1.67a1 .99-.6 0 1 1 .97l.23 9.93a1 .99 14.2 0 0 .51.85Z"/><rect width="3.26" height="2.76" x="-1.63" y="-1.38" fill="#8c1d40" rx=".61" transform="rotate(-1.5 3993.387 -1910.52)"/><rect width="3.5" height="2.76" x="-1.75" y="-1.38" fill="#8c1d40" rx=".88" transform="rotate(-1.9 3180.373 -2866.264)"/><path fill="#8c1d40" d="M105.42 114.89q1.55.12 1.04 2.07a1.01.99.4 0 1-.74.72q-2.37.57-4.12-.88a1.02 1-70.2 0 1-.35-.77v-6.13a1.01 1 13.4 0 0-.56-.9q-2.51-1.23-.07-2.38a1 .98-17.3 0 0 .56-1.04l-.15-1.13a1 1 0 0 1 .72-1.11q3.44-.93 2.76 2.21a1 1 0 0 0 1.04 1.21l4.58-.28a.99.99 0 0 1 1.04.79l1.21 5.84a.44.4 15.4 0 0 .16.25c.64.46 1.6-5.43 1.82-6.15a.99.99 0 0 1 .95-.71h1.43a1 1 0 0 1 .95 1.32q-1.77 5.28-3.46 10.54c-.86 2.68-2.49 3.72-5.21 3.11a1.01 1-79.5 0 1-.77-1.13l.11-.67a1 1 0 0 1 .82-.83l.73-.12a1 1 0 0 0 .78-1.3c-.35-1.1-2.91-10.71-3.65-10.32a.52.51 75.1 0 0-.27.47q.05 1.38-1.19 1.27a1.01.99 1.9 0 0-1.08 1v4.06a1 .99 2.2 0 0 .92.99Zm-63.88-4.88-.06 6.64a1.01 1-2.2 0 1-.92.99l-1.48.12a1 1 0 0 1-1.08-1v-9.13a1 1 0 0 1 1.03-1q2.68.09 5.21-.28c5.1-.73 3.83 6.34 3.75 10.35a1 .99 89.1 0 1-.94.98l-1.21.07a1 1 0 0 1-1.06-.98l-.11-6.66a1 1 0 0 0-.9-.97l-1.12-.12a1.01 1 3.1 0 0-1.11.99Zm33.18 4.27a1 1 0 0 1 .3 1.59q-2.3 2.43-5.47 2.15c-7.39-.63-6.56-12.19.98-11.81q4.88.24 5.28 5.51a1.01.99 88.1 0 1-1 1.08l-5.72-.06q-2.48-.02-.71 1.72 2.23 2.19 4.56-.26a1.01 1.01 0 0 1 1.16-.22l.62.3Zm-4.31-3.56q.61.15 1.14.02 1.43-.34.36-1.35-1.68-1.61-3.36-.01-1.41 1.35.54 1.38.46.01.94-.06.19-.03.38.02Zm18.04-2.02q-1.75 1.77.74 1.71 5.32-.14 4.94 5a.98.96-16.5 0 1-.4.72q-4.57 3.45-9.34.53a1.01 1-49.1 0 1-.11-1.63l.75-.6a1 .99 44.5 0 1 1.25-.01c2.74 2.17 6.45-.52 3.1-.92q-1.81-.21-3.59-.98-2.9-1.25-1.54-3.54 2.78-4.69 8.58-1.78 1.56.78.1 1.73l-.63.41a1.01 1-42.6 0 1-1.16-.04q-1.86-1.44-2.69-.6Z"/><rect width="3.28" height="11.22" x="-1.64" y="-5.61" fill="#8c1d40" rx=".53" transform="rotate(-.3 21438.974 -9752.955)"/><path fill="#8c1d40" d="M59.46 113.22c.28.03 1.37-5.46 1.58-6.06a1.01 1.01 0 0 1 .95-.67l1.28.01a1 1 0 0 1 .95 1.31l-3.05 9.27a1.01 1-79.5 0 1-.99.69l-2.08-.09a1 1 0 0 1-.91-.7l-2.94-9.18a1 1 0 0 1 .95-1.3h1.45a1 .99 82.4 0 1 .96.74l1.56 5.74a.35.33-3.5 0 0 .29.24Zm21.74-6.26 1.21-.35a1.01 1-8.2 0 1 1.28.95q.03 2.08-2.16 2.16a1 1 0 0 0-.96.98l-.1 6a1 1 0 0 1-1.03.98l-1.44-.03a1 1 0 0 1-.97-1.01l.04-9.11a1 1 0 0 1 .68-.95q1.35-.45 2.69.29a1.02 1.01-37.9 0 0 .76.09Z"/><rect width="3.4" height="11.2" x="-1.7" y="-5.6" fill="#8c1d40" rx=".66" transform="rotate(-.6 10754.014 -9186.625)"/></svg>